{
  "source": "C:\\Users\\Peter\\Desktop\\stuff\\MIUN\\quantitative_research\\video_compression\\videos\\BVI-HD\\BVI-HD_CDVL_videos\\ORIG\\FishAndRock_1920x1080_30fps.mp4",
  "output": "C:\\Users\\Peter\\Desktop\\stuff\\MIUN\\quantitative_research\\video_compression\\compressed_videos\\BVI-HD\\av1\\3\\FishAndRock_1920x1080_30fps_av1.mkv",
  "codec": "av1",
  "ok": "Input #0, mov,mp4,m4a,3gp,3g2,mj2, from 'C:\\Users\\Peter\\Desktop\\stuff\\MIUN\\quantitative_research\\video_compression\\videos\\BVI-HD\\BVI-HD_CDVL_videos\\ORIG\\FishAndRock_1920x1080_30fps.mp4':\n  Metadata:\n    major_brand     : isom\n    minor_version   : 512\n    compatible_brands: isomiso2avc1mp41\n    encoder         : Lavf54.28.101\n  Duration: 00:00:05.00, start: 0.000000, bitrate: 251564 kb/s\n  Stream #0:0[0x1](und): Video: h264 (High 4:4:4 Predictive) (avc1 / 0x31637661), yuv420p(progressive), 1920x1080, 251561 kb/s, 30 fps, 30 tbr, 30 tbn (default)\n    Metadata:\n      handler_name    : VideoHandler\n      vendor_id       : [0][0][0][0]\n[out#0/matroska @ 000001ba5ef98fc0] Codec AVOption b:a (set bitrate (in bits/s)) has not been used for any stream. The most likely reason is either wrong type (e.g. a video option with no video streams) or that it is a private option of some decoder which was not actually used for any stream.\nStream mapping:\n  Stream #0:0 -> #0:0 (h264 (native) -> av1 (libsvtav1))\nPress [q] to stop, [?] for help\nSvt[info]: -------------------------------------------\nSvt[info]: SVT [version]:\tSVT-AV1 Encoder Lib v3.1.0-19-g6ecfe8ec\nSvt[info]: SVT [build]  :\tGCC 15.2.0\t 64 bit\nSvt[info]: LIB Build date: Aug 17 2025 11:37:13\nSvt[info]: -------------------------------------------\nSvt[info]: Level of Parallelism: 5\nSvt[info]: Number of PPCS 93\nSvt[info]: [asm level on system : up to avx2]\nSvt[info]: [asm level selected : up to avx2]\nSvt[info]: -------------------------------------------\nSvt[info]: SVT [config]: main profile\ttier (auto)\tlevel (auto)\nSvt[info]: SVT [config]: width / height / fps numerator / fps denominator \t\t: 1920 / 1080 / 30 / 1\nSvt[info]: SVT [config]: bit-depth / color format \t\t\t\t\t: 8 / YUV420\nSvt[info]: SVT [config]: preset / tune / pred struct \t\t\t\t\t: 4 / PSNR / random access\nSvt[info]: SVT [config]: gop size / mini-gop size / key-frame type \t\t\t: 161 / 16 / key frame\nSvt[info]: SVT [config]: BRC mode / target bitrate (kbps)\t\t\t\t: VBR / 3000 \nSvt[info]: SVT [config]: AQ mode / Variance Boost \t\t\t\t\t: 2 / 0\nSvt[info]: SVT [config]: sharpness / luminance-based QP bias \t\t\t\t: 0 / 0\nSvt[info]: SVT [config]: QP scale compress strength \t\t\t\t\t: 0\nSvt[info]: -------------------------------------------\nOutput #0, matroska, to 'C:\\Users\\Peter\\Desktop\\stuff\\MIUN\\quantitative_research\\video_compression\\compressed_videos\\BVI-HD\\av1\\3\\FishAndRock_1920x1080_30fps_av1.mkv':\n  Metadata:\n    major_brand     : isom\n    minor_version   : 512\n    compatible_brands: isomiso2avc1mp41\n    encoder         : Lavf62.3.100\n  Stream #0:0(und): Video: av1 (AV01 / 0x31305641), yuv420p(tv, progressive), 1920x1080, q=2-31, 3000 kb/s, 30 fps, 1k tbn (default)\n    Metadata:\n      encoder         : Lavc62.11.100 libsvtav1\n      handler_name    : VideoHandler\n      vendor_id       : [0][0][0][0]\n    Side data:\n      cpb: bitrate max/min/avg: 0/0/3000000 buffer size: 3000000 vbv_delay: N/A\nframe=    0 fps=0.0 q=0.0 size=       0KiB time=N/A bitrate=N/A speed=N/A elapsed=0:00:01.04    \nframe=    0 fps=0.0 q=0.0 size=       0KiB time=N/A bitrate=N/A speed=N/A elapsed=0:00:01.57    \nframe=    0 fps=0.0 q=0.0 size=       0KiB time=N/A bitrate=N/A speed=N/A elapsed=0:00:02.10    \nframe=    0 fps=0.0 q=0.0 size=       0KiB time=N/A bitrate=N/A speed=N/A elapsed=0:00:02.66    \nframe=    0 fps=0.0 q=0.0 size=       0KiB time=N/A bitrate=N/A speed=N/A elapsed=0:00:03.19    \nframe=    1 fps=0.3 q=16.0 size=       1KiB time=00:00:00.00 bitrate=N/A speed=   0x elapsed=0:00:03.70    \nframe=    1 fps=0.2 q=16.0 size=       1KiB time=00:00:00.00 bitrate=N/A speed=   0x elapsed=0:00:04.22    \nframe=    1 fps=0.2 q=16.0 size=       1KiB time=00:00:00.00 bitrate=N/A speed=   0x elapsed=0:00:04.75    \nframe=    6 fps=1.1 q=32.0 size=       1KiB time=00:00:00.16 bitrate=  34.2kbits/s speed=0.0316x elapsed=0:00:05.27    \nframe=    8 fps=1.4 q=32.0 size=       1KiB time=00:00:00.23 bitrate=  24.4kbits/s speed=0.0402x elapsed=0:00:05.80    \nframe=   12 fps=1.9 q=31.0 size=       1KiB time=00:00:00.36 bitrate=  15.6kbits/s speed=0.0579x elapsed=0:00:06.33    \nframe=   17 fps=2.5 q=15.0 size=       1KiB time=00:00:00.53 bitrate=  10.7kbits/s speed=0.0778x elapsed=0:00:06.85    \nframe=   23 fps=3.1 q=28.0 size=       1KiB time=00:00:00.73 bitrate=   7.8kbits/s speed=0.0994x elapsed=0:00:07.37    \nframe=   25 fps=3.2 q=26.0 size=       1KiB time=00:00:00.80 bitrate=   7.1kbits/s speed=0.101x elapsed=0:00:07.89    \nframe=   30 fps=3.6 q=31.0 size=       1KiB time=00:00:00.96 bitrate=   5.9kbits/s speed=0.115x elapsed=0:00:08.41    \nframe=   36 fps=4.0 q=32.0 size=       1KiB time=00:00:01.16 bitrate=   4.9kbits/s speed=0.13x elapsed=0:00:08.95    \nframe=   40 fps=4.2 q=32.0 size=       1KiB time=00:00:01.30 bitrate=   4.4kbits/s speed=0.137x elapsed=0:00:09.45    \nframe=   44 fps=4.4 q=30.0 size=       1KiB time=00:00:01.43 bitrate=   4.0kbits/s speed=0.144x elapsed=0:00:09.97    \nframe=   50 fps=4.8 q=33.0 size=       1KiB time=00:00:01.63 bitrate=   3.5kbits/s speed=0.155x elapsed=0:00:10.51    \nframe=   57 fps=5.2 q=26.0 size=       1KiB time=00:00:01.86 bitrate=   3.1kbits/s speed=0.169x elapsed=0:00:11.03    \nframe=   61 fps=5.3 q=28.0 size=       1KiB time=00:00:02.00 bitrate=   2.9kbits/s speed=0.173x elapsed=0:00:11.56    \nframe=   67 fps=5.5 q=32.0 size=       1KiB time=00:00:02.20 bitrate=   2.6kbits/s speed=0.182x elapsed=0:00:12.09    \nframe=   73 fps=5.8 q=27.0 size=       1KiB time=00:00:02.40 bitrate=   2.4kbits/s speed=0.19x elapsed=0:00:12.61    \nframe=   77 fps=5.9 q=28.0 size=       1KiB time=00:00:02.53 bitrate=   2.3kbits/s speed=0.193x elapsed=0:00:13.12    \nframe=   81 fps=5.9 q=14.0 size=       1KiB time=00:00:02.66 bitrate=   2.1kbits/s speed=0.195x elapsed=0:00:13.65    \nframe=   89 fps=6.3 q=26.0 size=       1KiB time=00:00:02.93 bitrate=   1.9kbits/s speed=0.207x elapsed=0:00:14.18    \nframe=   93 fps=6.3 q=29.0 size=       1KiB time=00:00:03.06 bitrate=   1.9kbits/s speed=0.209x elapsed=0:00:14.70    \nframe=   99 fps=6.5 q=34.0 size=       1KiB time=00:00:03.26 bitrate=   1.7kbits/s speed=0.214x elapsed=0:00:15.23    \nframe=  105 fps=6.7 q=27.0 size=       1KiB time=00:00:03.46 bitrate=   1.6kbits/s speed=0.22x elapsed=0:00:15.74    \nframe=  109 fps=6.7 q=28.0 size=       1KiB time=00:00:03.60 bitrate=   1.6kbits/s speed=0.222x elapsed=0:00:16.25    \nframe=  113 fps=6.7 q=15.0 size=       1KiB time=00:00:03.73 bitrate=   1.5kbits/s speed=0.223x elapsed=0:00:16.77    \nframe=  121 fps=7.0 q=27.0 size=       1KiB time=00:00:04.00 bitrate=   1.4kbits/s speed=0.231x elapsed=0:00:17.29    \nframe=  123 fps=6.9 q=33.0 size=       1KiB time=00:00:04.06 bitrate=   1.4kbits/s speed=0.228x elapsed=0:00:17.81    \nframe=  129 fps=7.0 q=16.0 size=       1KiB time=00:00:04.26 bitrate=   1.3kbits/s speed=0.233x elapsed=0:00:18.31    \nframe=  135 fps=7.2 q=36.0 size=       1KiB time=00:00:04.46 bitrate=   1.3kbits/s speed=0.237x elapsed=0:00:18.83    \nframe=  139 fps=7.2 q=36.0 size=       1KiB time=00:00:04.60 bitrate=   1.2kbits/s speed=0.238x elapsed=0:00:19.35    \n[out#0/matroska @ 000001ba5ef98fc0] video:1711KiB audio:0KiB subtitle:0KiB other streams:0KiB global headers:0KiB muxing overhead: 0.082863%\nframe=  150 fps=7.6 q=36.0 Lsize=    1713KiB time=00:00:04.96 bitrate=2824.8kbits/s speed=0.251x elapsed=0:00:19.74    \n",
  "seconds": 20.332301139831543,
  "probe_out": {}
}